<svg xmlns="http://www.w3.org/2000/svg" viewBox="0 0 48 48"><defs><style>.a{fill:gray;}</style></defs><path class="a" d="M4.55,42,4.46,16.63A2.66,2.66,0,0,1,7,13.82H7a2.66,2.66,0,0,1,2.48,2.79l.09,25.32A2.66,2.66,0,0,1,7,44.75H7A2.66,2.66,0,0,1,4.55,42Z"/><path class="a" d="M22.2,27l.11,15.52a2.29,2.29,0,0,1-2.26,2.3h-.17a2.28,2.28,0,0,1-2.29-2.27l-.1-26.38a2.28,2.28,0,0,1,2.26-2.29h.16a2.27,2.27,0,0,1,2.29,2.28v3.35c2.1-3.6,8.91-7.1,14.6-3.51,6.65,4.19,6.61,9.8,6.64,11.67l.1,14.87a2.28,2.28,0,0,1-2.28,2.3h0A2.27,2.27,0,0,1,39,42.54l-.11-14.07c-.19-3.68-3-8.83-7.89-8.89C27.69,19.54,22.57,22.77,22.2,27Z"/><circle class="a" cx="7.01" cy="4.52" r="2.55"/></svg>