<svg id="Layer_1" data-name="Layer 1" xmlns="http://www.w3.org/2000/svg" viewBox="0 0 21.9 21.9">
  <defs>
    <style>
      .cls-1 {
        fill: none;
        stroke: gray;
        stroke-miterlimit: 10;
        stroke-width: 2px;
      }

      .cls-2 {
        fill: gray;
      }
    </style>
  </defs>
  <circle class="cls-1" cx="11" cy="11" r="4.8"/>
  <path class="cls-2" d="M13.1,2.1c0,.6-.5,2.6-1.1,2.6s-1.1-2-1.1-2.6a1.1,1.1,0,0,1,2.2,0Z" transform="translate(-1 -1)"/>
  <path class="cls-2" d="M21.9,13.1c-.6,0-2.6-.5-2.6-1.1s2-1.1,2.6-1.1a1.1,1.1,0,1,1,0,2.2Z" transform="translate(-1 -1)"/>
  <path class="cls-2" d="M10.9,21.9c0-.6.5-2.6,1.1-2.6s1.1,2,1.1,2.6a1.1,1.1,0,0,1-2.2,0Z" transform="translate(-1 -1)"/>
  <path class="cls-2" d="M2.1,10.9c.6,0,2.6.5,2.6,1.1s-2,1.1-2.6,1.1a1.1,1.1,0,0,1,0-2.2Z" transform="translate(-1 -1)"/>
  <path class="cls-2" d="M21.1,4.6c-.5.5-2.6,1.8-3,1.3s.7-2.5,1.2-3a1.3,1.3,0,0,1,1.8,0A1.1,1.1,0,0,1,21.1,4.6Z" transform="translate(-1 -1)"/>
  <path class="cls-2" d="M19.4,21.1c-.5-.5-1.8-2.6-1.3-3s2.5.7,3,1.2a1.3,1.3,0,0,1,0,1.8A1.1,1.1,0,0,1,19.4,21.1Z" transform="translate(-1 -1)"/>
  <path class="cls-2" d="M2.9,19.4c.5-.5,2.6-1.8,3-1.3s-.7,2.6-1.2,3a1.3,1.3,0,0,1-1.8,0A1.1,1.1,0,0,1,2.9,19.4Z" transform="translate(-1 -1)"/>
  <path class="cls-2" d="M4.6,2.9c.5.5,1.8,2.6,1.3,3.1s-2.6-.8-3-1.3a1.3,1.3,0,0,1,0-1.8A1.1,1.1,0,0,1,4.6,2.9Z" transform="translate(-1 -1)"/>
</svg>
