<svg width="1154" height="1080" viewBox="0 0 1154 1080" fill="none" xmlns="http://www.w3.org/2000/svg">
<circle cx="221.799" cy="786.678" r="805.389" transform="rotate(9.66547 221.799 786.678)" stroke="#0B0B0B" stroke-width="4" stroke-linecap="round" stroke-linejoin="round" stroke-dasharray="2 30 2 30"/>
<circle cx="221.798" cy="786.678" r="613.117" transform="rotate(9.66547 221.798 786.678)" stroke="#0D0D0D" stroke-width="4" stroke-linecap="round" stroke-linejoin="round" stroke-dasharray="2 30 2 30"/>
<circle cx="221.798" cy="786.677" r="466.82" transform="rotate(9.66547 221.798 786.677)" stroke="#0E0E0E" stroke-width="4" stroke-linecap="round" stroke-linejoin="round" stroke-dasharray="2 30 2 30"/>
<circle cx="221.798" cy="786.677" r="362.208" transform="rotate(9.66547 221.798 786.677)" stroke="#161616" stroke-width="3" stroke-linecap="round" stroke-linejoin="round" stroke-dasharray="2 30 2 30"/>
<circle cx="221.798" cy="786.676" r="279.406" transform="rotate(9.66547 221.798 786.676)" stroke="#242424" stroke-width="3" stroke-linecap="round" stroke-linejoin="round" stroke-dasharray="2 30 2 30"/>
<circle cx="221.798" cy="786.601" r="207.738" stroke="#242424" stroke-width="3" stroke-linecap="round" stroke-linejoin="round" stroke-dasharray="2 30 2 30"/>
<circle cx="221.798" cy="786.601" r="145.278" transform="rotate(11.1239 221.798 786.601)" stroke="#555555" stroke-width="2" stroke-linecap="round" stroke-linejoin="round" stroke-dasharray="2 20 2 20"/>
<circle cx="221.799" cy="786.602" r="96.7936" transform="rotate(-0.0238096 221.799 786.602)" stroke="#6B6B6B" stroke-width="2" stroke-linecap="round" stroke-linejoin="round" stroke-dasharray="3 24 2 24"/>
<circle cx="219.257" cy="786.676" r="50.9485" transform="rotate(-0.0238096 219.257 786.676)" stroke="#D7D7D7" stroke-linecap="round" stroke-linejoin="round" stroke-dasharray="2 50 2 50"/>
<circle cx="219.299" cy="786.719" r="11.5319" transform="rotate(-0.0238096 219.299 786.719)" stroke="#CFCFCF" stroke-linecap="round" stroke-linejoin="round" stroke-dasharray="1 10 1 10"/>
<path d="M234.859 775.501L224.259 774.449L218.207 780.064L219.165 783.3L214.574 779.615L219.903 770.571L212.116 778.934L213.222 784.546L219.165 787.555L212.116 790.091L207.37 785.372L212.116 792.094L218.817 792.387L222.909 789.514L222.432 795.417L214.574 799.731L224.948 795.417L226.523 790.515L224.948 785.372L231.612 787.002L233.355 795.417L232.638 785.372L227.524 781.503H223.364L226.176 775.967L234.859 775.501Z" fill="white"/>
</svg>
