<svg width="1154" height="1080" viewBox="0 0 1154 1080" fill="none" xmlns="http://www.w3.org/2000/svg">
<circle cx="221.799" cy="786.678" r="805.389" transform="rotate(9.66547 221.799 786.678)" stroke="#0B0B0B" stroke-width="4" stroke-linecap="round" stroke-linejoin="round" stroke-dasharray="2 30 2 30"/>
<circle cx="221.798" cy="786.678" r="613.117" transform="rotate(9.66547 221.798 786.678)" stroke="#0D0D0D" stroke-width="4" stroke-linecap="round" stroke-linejoin="round" stroke-dasharray="2 30 2 30"/>
<circle cx="221.798" cy="786.677" r="466.82" transform="rotate(9.66547 221.798 786.677)" stroke="#0E0E0E" stroke-width="4" stroke-linecap="round" stroke-linejoin="round" stroke-dasharray="2 30 2 30"/>
<circle cx="221.798" cy="786.677" r="362.208" transform="rotate(9.66547 221.798 786.677)" stroke="#161616" stroke-width="3" stroke-linecap="round" stroke-linejoin="round" stroke-dasharray="2 30 2 30"/>
<circle cx="221.798" cy="786.676" r="279.406" transform="rotate(9.66547 221.798 786.676)" stroke="#242424" stroke-width="3" stroke-linecap="round" stroke-linejoin="round" stroke-dasharray="2 30 2 30"/>
<circle cx="221.798" cy="786.601" r="207.738" stroke="#242424" stroke-width="3" stroke-linecap="round" stroke-linejoin="round" stroke-dasharray="2 30 2 30"/>
<circle cx="221.798" cy="786.601" r="145.278" transform="rotate(11.1239 221.798 786.601)" stroke="#555555" stroke-width="2" stroke-linecap="round" stroke-linejoin="round" stroke-dasharray="2 20 2 20"/>
<circle cx="221.799" cy="786.602" r="96.7936" transform="rotate(-0.0238096 221.799 786.602)" stroke="#6B6B6B" stroke-width="2" stroke-linecap="round" stroke-linejoin="round" stroke-dasharray="3 24 2 24"/>
<circle cx="219.257" cy="786.676" r="50.9485" transform="rotate(-0.0238096 219.257 786.676)" stroke="#CFCFCF" stroke-linecap="round" stroke-linejoin="round" stroke-dasharray="3 30 3 30"/>
<circle cx="219.299" cy="786.719" r="11.5319" transform="rotate(-0.0238096 219.299 786.719)" stroke="#CFCFCF" stroke-linecap="round" stroke-linejoin="round" stroke-dasharray="1 10 1 10"/>
<path d="M212.619 775.988L221.772 780.181L223.388 783.655L227.009 776.707L225.737 785.123L221.772 788.695L231.336 789.544L221.772 791.582L218.152 788.695L219.708 797.221L214.434 788.695L216.831 784.242L207.462 789.544L215.315 781.894H219.708L212.619 775.988Z" fill="white"/>
</svg>
