<?xml version="1.0" encoding="utf-8"?>
<!-- Generator: Adobe Illustrator 25.0.0, SVG Export Plug-In . SVG Version: 6.00 Build 0)  -->
<svg version="1.1" id="Layer_1" xmlns="http://www.w3.org/2000/svg" xmlns:xlink="http://www.w3.org/1999/xlink" x="0px" y="0px"
	 width="153.6px" height="185.3px" viewBox="0 0 153.6 185.3" style="enable-background:new 0 0 153.6 185.3;" xml:space="preserve"
	>
<style type="text/css">
	.st0{fill:#999999;}
	.st1{fill:#FFFFFF;}
</style>
<polyline id="ripple-right_1_" class="st0" points="153.6,123.7 93.9,15.4 140.8,118.8 82,185.3 "/>
<polyline id="ripple_left_1_" class="st0" points="13.2,110.8 41.1,51.1 0,113.5 75.7,185.3 "/>
<polygon id="left_top_spike" class="st1" points="13.2,110.8 41.1,51.1 0,113.5 27.9,140 28.1,128.1 "/>
<polygon id="right_bot_spike" class="st1" points="82,185.3 108,162.9 104,158.7 "/>
<polygon id="left_bot_spike" class="st1" points="75.7,185.3 55.6,159.4 51.7,162.5 "/>
<path id="base" class="st1" d="M129.9,130.8l-13,14.2l6.9-18.3L76.8,0l-5.9,18c0,0-7.9,16.7,3.5,6.3c4.7-4.4,2.3-5.2,1.8-9.6
	c11.6,14.3-3.2,21-3.2,21c-8.6,3.8-14.2,8.2-25.5,40.5l-19.3,52l0,0l-0.3,11.9l23.8,22.5l3.9-3.2l-10.7-13.9l13.3-43.4l30.3-5.3
	l-21.7-6.6l-5.5,3.4l13.4-44.1l36.7,100.2l-7.3,8.9l3.9,4.3l27.5-23.7L129.9,130.8z"/>
<polygon id="right_top_spike" class="st1" points="93.9,15.4 140.8,118.8 129.8,130.8 135.5,139.3 153.6,123.7 "/>
</svg>
